<svg width="247" height="200" viewBox="0 0 247 200" fill="none" xmlns="http://www.w3.org/2000/svg">
<path d="M246.232 172.761H237.786V172.027H245.487V103.077H215.789V1.1511H188.526V0.416992H216.523V102.342H246.232V172.761Z" fill="#3366FF"/>
<path d="M77.113 54.9127H76.369V30.5382H95.3776V8.53711H96.1113V31.2839H77.113V54.9127Z" fill="#3366FF"/>
<path d="M224.086 147.29C222.726 147.29 221.615 146.204 221.586 144.843V128.632C221.586 122.754 216.823 117.988 210.949 117.988C205.074 117.988 200.312 122.754 200.312 128.632V144.843C200.312 146.225 199.193 147.344 197.813 147.344C196.432 147.344 195.312 146.225 195.312 144.843V128.632C195.312 119.991 202.314 112.985 210.949 112.985C219.585 112.985 226.586 119.991 226.586 128.632V144.843C226.556 146.204 225.446 147.29 224.086 147.29Z" fill="white"/>
<path d="M226.585 128.632V144.843C226.58 145.721 226.11 146.531 225.351 146.971C224.97 147.203 224.532 147.324 224.086 147.323C222.713 147.323 221.597 146.215 221.586 144.843V128.632C221.587 123.243 217.562 118.704 212.215 118.063C211.794 118.017 211.371 117.991 210.949 117.988C205.074 117.988 200.312 122.754 200.312 128.632V144.843C200.302 145.719 199.834 146.527 199.078 146.971C198.693 147.203 198.252 147.324 197.801 147.323C196.424 147.317 195.308 146.2 195.302 144.821V128.632C195.314 119.991 202.314 112.991 210.949 112.985C211.371 112.985 211.794 113.006 212.215 113.049C220.329 113.709 226.579 120.487 226.585 128.632Z" fill="white"/>
<path d="M226.585 128.631V144.843C226.937 145.442 226.807 146.207 226.276 146.656C225.745 147.104 224.969 147.104 224.437 146.656C223.907 146.207 223.776 145.442 224.129 144.843V128.631C224.129 122.754 219.366 117.988 213.492 117.988C213.065 117.991 212.639 118.016 212.215 118.063C211.794 118.016 211.371 117.991 210.949 117.988C205.074 117.988 200.312 122.754 200.312 128.631V144.843C200.658 145.442 200.524 146.204 199.995 146.649C199.465 147.094 198.692 147.094 198.161 146.649C197.631 146.204 197.497 145.442 197.844 144.843V128.631C197.377 123.203 200.007 117.974 204.643 115.116C209.279 112.257 215.13 112.257 219.765 115.116C224.401 117.974 227.032 123.203 226.564 128.631H226.585Z" fill="#DFE3E8"/>
<path d="M229.347 144.778H191.041C186.38 144.778 182.602 148.559 182.602 153.223V191.553C182.602 196.218 186.38 199.999 191.041 199.999H229.347C234.008 199.999 237.786 196.218 237.786 191.553V153.223C237.786 148.559 234.008 144.778 229.347 144.778Z" fill="#091A7A"/>
<path d="M229.356 144.79H200.605C195.949 144.79 192.175 148.567 192.175 153.226V191.564C192.175 196.223 195.949 200 200.605 200H229.356C234.012 200 237.786 196.223 237.786 191.564V153.226C237.786 148.567 234.012 144.79 229.356 144.79Z" fill="#1939B7"/>
<path d="M213.884 174.261C214.465 172.216 212.907 169.953 212.535 167.858C212.468 167.486 212.461 167.096 212.522 166.704C212.788 164.992 214.26 163.729 215.99 163.729C217.722 163.729 219.194 164.992 219.46 166.704C219.519 167.086 219.514 167.465 219.452 167.829C219.097 169.925 217.571 172.231 218.21 174.259L218.671 175.726C219.225 177.484 217.913 179.275 216.07 179.275C214.26 179.275 212.952 177.542 213.446 175.8L213.884 174.261Z" fill="#091A7A"/>
<path d="M229.569 32.3691H204.152C199.047 32.3691 194.909 36.5099 194.909 41.6177V67.9205C194.909 73.0283 199.047 77.169 204.152 77.169H229.569C234.674 77.169 238.812 73.0283 238.812 67.9205V41.6177C238.812 36.5099 234.674 32.3691 229.569 32.3691Z" fill="#3366FF"/>
<path opacity="0.18" d="M53.9371 14.6475H28.0432C26.129 14.6475 24.5772 16.2002 24.5772 18.1157V55.9792C24.5772 57.8946 26.129 59.4474 28.0432 59.4474H53.9371C55.8513 59.4474 57.4031 57.8946 57.4031 55.9792V18.1157C57.4031 16.2002 55.8513 14.6475 53.9371 14.6475Z" fill="#3366FF"/>
<path d="M45.9381 21.9062H20.0441C18.1299 21.9062 16.5782 23.459 16.5782 25.3745V63.2379C16.5782 65.1534 18.1299 66.7062 20.0441 66.7062H45.9381C47.8523 66.7062 49.4041 65.1534 49.4041 63.2379V25.3745C49.4041 23.459 47.8523 21.9062 45.9381 21.9062Z" fill="white"/>
<path opacity="0.48" d="M45.9381 21.9062H20.0441C18.1299 21.9062 16.5782 23.459 16.5782 25.3745V63.2379C16.5782 65.1534 18.1299 66.7062 20.0441 66.7062H45.9381C47.8523 66.7062 49.4041 65.1534 49.4041 63.2379V25.3745C49.4041 23.459 47.8523 21.9062 45.9381 21.9062Z" fill="#3366FF"/>
<path d="M0.813927 146.198C1.05574 148.483 1.84783 150.675 3.12216 152.586C8.2279 161.611 13.9507 170.499 21.854 177.194C33.4803 187.028 48.6908 191.276 63.3912 195.288C62.0833 194.649 60.4982 187.837 59.9136 186.38C58.7756 183.463 57.7116 180.515 56.6267 177.576C54.8926 172.946 51.3076 169.221 47.7341 165.805C39.7357 158.072 30.016 152.352 19.3756 149.115C13.3566 147.272 7.10758 146.291 0.813927 146.198Z" fill="#091A7A"/>
<path d="M58.3285 151.255C57.1258 142.856 55.8919 134.352 52.5207 126.572C49.1483 118.791 43.2981 111.67 35.3524 108.765C35.1183 120.784 34.8878 132.802 34.6609 144.815C34.5226 151.754 34.4056 158.833 36.3947 165.485C39.8943 177.193 52.01 190.828 63.6788 194.681C65.413 189.082 62.5085 180.599 61.679 174.777L58.3285 151.255Z" fill="#3366FF"/>
<path d="M182.384 54.335H70.1513C64.7735 54.335 60.4139 58.6973 60.4139 64.0786V86.2097C60.4139 91.591 64.7735 95.9534 70.1513 95.9534H182.384C187.762 95.9534 192.121 91.591 192.121 86.2097V64.0786C192.121 58.6973 187.762 54.335 182.384 54.335Z" fill="#1939B7"/>
<path d="M182.384 54.335H77.0833C71.7055 54.335 67.3459 58.6973 67.3459 64.0786V86.2097C67.3459 91.591 71.7055 95.9534 77.0833 95.9534H182.384C187.762 95.9534 192.121 91.591 192.121 86.2097V64.0786C192.121 58.6973 187.762 54.335 182.384 54.335Z" fill="#3366FF"/>
<path d="M95.0737 74.9641C95.0737 77.519 93.0046 79.5884 90.4524 79.5884C87.9003 79.5884 85.8311 77.519 85.8311 74.9641C85.8311 72.4104 87.9003 70.3398 90.4524 70.3398C93.0046 70.3398 95.0737 72.4104 95.0737 74.9641ZM108.938 74.9641C108.938 77.519 106.869 79.5884 104.316 79.5884C101.764 79.5884 99.6951 77.519 99.6951 74.9641C99.6951 72.4104 101.764 70.3398 104.316 70.3398C106.869 70.3398 108.938 72.4104 108.938 74.9641ZM118.18 79.5884C120.732 79.5884 122.802 77.519 122.802 74.9641C122.802 72.4104 120.732 70.3398 118.18 70.3398C115.628 70.3398 113.559 72.4104 113.559 74.9641C113.559 77.519 115.628 79.5884 118.18 79.5884Z" fill="#D6E4FF"/>
<path d="M182.384 105.202H70.1513C64.7735 105.202 60.4139 109.565 60.4139 114.946V137.077C60.4139 142.458 64.7735 146.821 70.1513 146.821H182.384C187.762 146.821 192.121 142.458 192.121 137.077V114.946C192.121 109.565 187.762 105.202 182.384 105.202Z" fill="#1939B7"/>
<path d="M192.599 116.28V135.719C192.608 138.666 191.391 141.494 189.222 143.578C187.051 145.661 184.103 146.828 181.034 146.82H79.3659C76.3008 146.82 73.3617 145.65 71.1954 143.568C69.0303 141.484 67.8172 138.661 67.823 135.719V116.28C67.823 110.162 72.9908 105.201 79.3659 105.201H181.034C184.099 105.195 187.04 106.361 189.21 108.438C191.38 110.517 192.599 113.339 192.599 116.28Z" fill="#3366FF"/>
<path d="M95.5509 126.011C95.5509 128.565 93.4817 130.635 90.9296 130.635C88.3775 130.635 86.3083 128.565 86.3083 126.011C86.3083 123.457 88.3775 121.387 90.9296 121.387C93.4817 121.387 95.5509 123.457 95.5509 126.011ZM109.415 126.011C109.415 128.565 107.346 130.635 104.794 130.635C102.241 130.635 100.172 128.565 100.172 126.011C100.172 123.457 102.241 121.387 104.794 121.387C107.346 121.387 109.415 123.457 109.415 126.011ZM118.657 130.635C121.21 130.635 123.279 128.565 123.279 126.011C123.279 123.457 121.21 121.387 118.657 121.387C116.105 121.387 114.036 123.457 114.036 126.011C114.036 128.565 116.105 130.635 118.657 130.635Z" fill="#D6E4FF"/>
<path d="M178.735 123.699H144.075C143.437 123.699 142.919 124.217 142.919 124.855V127.167C142.919 127.806 143.437 128.323 144.075 128.323H178.735C179.373 128.323 179.89 127.806 179.89 127.167V124.855C179.89 124.217 179.373 123.699 178.735 123.699Z" fill="#D6E4FF"/>
<path d="M182.384 156.311H70.1513C64.7735 156.311 60.4139 160.673 60.4139 166.054V188.185C60.4139 193.567 64.7735 197.929 70.1513 197.929H182.384C187.762 197.929 192.121 193.567 192.121 188.185V166.054C192.121 160.673 187.762 156.311 182.384 156.311Z" fill="#1939B7"/>
<path d="M182.861 156.068H77.5604C72.1826 156.068 67.823 160.431 67.823 165.812V187.943C67.823 193.324 72.1826 197.687 77.5604 197.687H182.861C188.239 197.687 192.599 193.324 192.599 187.943V165.812C192.599 160.431 188.239 156.068 182.861 156.068Z" fill="#3366FF"/>
<path d="M95.5509 176.878C95.5509 179.432 93.4817 181.502 90.9296 181.502C88.3775 181.502 86.3083 179.432 86.3083 176.878C86.3083 174.324 88.3775 172.254 90.9296 172.254C93.4817 172.254 95.5509 174.324 95.5509 176.878ZM109.415 176.878C109.415 179.432 107.346 181.502 104.794 181.502C102.241 181.502 100.172 179.432 100.172 176.878C100.172 174.324 102.241 172.254 104.794 172.254C107.346 172.254 109.415 174.324 109.415 176.878ZM118.657 181.502C121.21 181.502 123.279 179.432 123.279 176.878C123.279 174.324 121.21 172.254 118.657 172.254C116.105 172.254 114.036 174.324 114.036 176.878C114.036 179.432 116.105 181.502 118.657 181.502Z" fill="#D6E4FF"/>
<path d="M177.579 174.565H142.919C142.281 174.565 141.764 175.083 141.764 175.721V178.034C141.764 178.672 142.281 179.19 142.919 179.19H177.579C178.217 179.19 178.735 178.672 178.735 178.034V175.721C178.735 175.083 178.217 174.565 177.579 174.565Z" fill="#D6E4FF"/>
<path d="M206.462 48.3386L217.075 42.7744L227.258 48.3085C227.258 48.3085 225.366 61.979 217.326 65.8958C217.306 65.8958 207.334 62.0692 206.462 48.3386Z" fill="#091A7A"/>
</svg>
